<?xml version="1.0" encoding="iso-8859-1"?>
<!-- Uploaded to: SVG Repo, www.svgrepo.com, Generator: SVG Repo Mixer Tools -->
<svg fill="#000000" height="800px" width="800px" version="1.1" id="Layer_1" xmlns="http://www.w3.org/2000/svg" xmlns:xlink="http://www.w3.org/1999/xlink" 
	 viewBox="0 0 198.614 198.614" xml:space="preserve">
<g>
	<g>
		<g>
			<path d="M193.005,107.145c-0.022-0.129,0.018-0.259-0.018-0.386l-6.949-24.322c-0.427-1.493-1.791-2.521-3.342-2.521h-17.373
				V62.542c0-13.41-10.902-24.322-24.302-24.322h-20.888c-13.4,0-24.302,10.912-24.302,24.322v17.373H15.916
				c-1.551,0-2.915,1.028-3.342,2.521l-6.949,24.322c-0.036,0.128,0.003,0.258-0.018,0.387c-0.033,0.192-0.114,0.365-0.114,0.566
				v76.441c0,1.92,1.554,3.475,3.475,3.475h13.898v10.987h6.949v-10.987h138.983v10.987h6.949v-10.987h13.898
				c1.92,0,3.475-1.554,3.475-3.475v-76.441C193.121,107.511,193.039,107.337,193.005,107.145z M102.781,62.542
				c0-9.579,7.784-17.373,17.352-17.373h20.888c9.569,0,17.353,7.794,17.353,17.373v17.373h-55.593V62.542z M18.536,86.864h80.77
				h62.542h18.228l4.961,17.373H13.575L18.536,86.864z M186.172,180.678L186.172,180.678h-10.425h-6.949H29.815h-6.949H12.442
				v-69.492h173.729V180.678z"/>
			<path d="M15.916,69.492h52.119c1.92,0,3.475-1.554,3.475-3.475V3.475C71.51,1.554,69.955,0,68.036,0H15.916
				c-1.92,0-3.475,1.554-3.475,3.475v62.542C12.442,67.937,13.997,69.492,15.916,69.492z M19.392,6.949H64.56v55.593H19.392V6.949z"
				/>
			<path d="M29.815,27.797c0.889,0,1.778-0.339,2.457-1.018l6.949-6.949c1.357-1.357,1.357-3.556,0-4.913s-3.556-1.357-4.913,0
				l-6.949,6.949c-1.357,1.357-1.357,3.556,0,4.913C28.038,27.457,28.926,27.797,29.815,27.797z"/>
			<path d="M48.205,14.916L27.359,35.764c-1.357,1.357-1.357,3.556,0,4.913c0.679,0.678,1.567,1.018,2.457,1.018
				c0.889,0,1.778-0.339,2.457-1.018L53.119,19.83c1.357-1.357,1.357-3.556,0-4.913S49.564,13.559,48.205,14.916z"/>
		</g>
	</g>
</g>
</svg>